<svg width="39.063416" height="47.756363" viewBox="0 0 39.0634 47.7564" fill="none" xmlns="http://www.w3.org/2000/svg" xmlns:xlink="http://www.w3.org/1999/xlink">
	<desc>
			Created with Pixso.
	</desc>
	<defs/>
	<path id="Vector" d="M28.19 0.05C25.97 0.3 22.82 2.27 21.25 4.37C20.35 5.57 19.82 6.72 19.36 8.45L19.13 9.31L19.14 10.23C19.15 10.73 19.18 11.2 19.21 11.28C19.28 11.46 19.41 11.49 20.38 11.49C21.18 11.5 21.22 11.49 21.91 11.29C23.73 10.76 25.07 9.96 26.03 8.83C26.26 8.55 26.6 8.18 26.78 7.99C27.38 7.4 28.15 6.09 28.58 4.95C29.01 3.81 29.2 2.75 29.25 1.24L29.29 0.27L29.14 0.13C28.98 -0.03 28.9 -0.03 28.19 0.05Z" fill="#717171" fill-opacity="1.000000" fill-rule="nonzero"/>
	<path id="Vector" d="M27.68 11.35C26.6 11.41 23.69 12.22 21.59 13.04C20.32 13.53 20.32 13.53 20.07 13.58C19.63 13.65 18.56 13.34 16.72 12.59C15.74 12.2 14.73 11.91 13.25 11.57C12.62 11.43 11.59 11.42 11.14 11.54C10.96 11.59 10.39 11.71 9.88 11.79C8.77 11.99 8.15 12.18 7.32 12.59C4.81 13.82 3.1 15.58 1.74 18.33C1.14 19.55 0.7 20.74 0.37 22C-0.12 23.87 -0.13 27.47 0.35 29.66C0.4 29.92 0.45 30.24 0.45 30.37C0.45 30.63 0.5 30.83 0.96 32.64C1.38 34.31 1.34 34.17 2.16 36.22C3.3 39.09 3.66 39.72 5.99 42.94C6.95 44.26 7.44 44.86 8.14 45.58C8.88 46.33 9.48 46.77 10.32 47.19C11.27 47.65 11.69 47.76 12.56 47.75C13.68 47.75 14.59 47.52 16.3 46.8C17.39 46.35 17.46 46.32 19.43 45.92C20.02 45.79 20.56 45.8 21.39 45.94C21.68 45.98 22.11 46.05 22.34 46.08C22.8 46.15 23.27 46.3 24.48 46.79C25.95 47.38 26.98 47.64 28.07 47.71C29.64 47.81 31.16 47.11 32.79 45.55C34.44 43.94 35.99 41.75 37.55 38.79C37.98 37.99 38.65 36.36 38.76 35.87C38.81 35.67 38.89 35.42 38.95 35.33C39.01 35.23 39.06 35.09 39.06 35.03C39.06 34.83 38.66 34.52 37.95 34.17C36.62 33.48 35.32 32.31 34.44 30.99C33.81 30.05 33.17 28.63 33.02 27.8C32.75 26.42 32.67 24.91 32.82 23.86C32.86 23.58 33 23.01 33.13 22.57C33.69 20.68 34.08 19.92 34.96 18.97C35.23 18.7 35.45 18.44 35.45 18.42C35.45 18.32 36.79 17.2 37.12 17.02C37.3 16.92 37.53 16.76 37.63 16.66C37.93 16.37 37.88 16.25 37.13 15.37C36.12 14.18 34.84 13.21 33.34 12.48C32.41 12.02 31.76 11.8 30.86 11.61C29.94 11.42 28.56 11.3 27.68 11.35Z" fill="#717171" fill-opacity="1.000000" fill-rule="nonzero"/>
</svg>
